<?xml version="1.0" encoding="UTF-8"?>
<svg xmlns="http://www.w3.org/2000/svg" viewBox="0 0 730.33 165.69">
  <defs>
    <style>
      .cls-1 {
        mix-blend-mode: multiply;
      }

      .cls-1, .cls-2 {
        opacity: .25;
      }

      .cls-3 {
        fill: #d0a445;
      }

      .cls-4 {
        fill: #262425;
      }

      .cls-5 {
        isolation: isolate;
      }

      .cls-6 {
        fill: #cc532b;
      }

      .cls-7 {
        fill: #2c2e39;
      }

      .cls-8 {
        fill: #fff;
      }

      .cls-9 {
        fill: #839644;
      }

      .cls-10 {
        fill: #edbc48;
      }

      .cls-11 {
        fill: #854f92;
      }

      .cls-12 {
        fill: #71aad9;
      }

      .cls-13 {
        fill: #af382d;
      }
    </style>
  </defs>
  <g class="cls-5">
    <g id="Layer_1" data-name="Layer 1">
      <g>
        <g>
          <path class="cls-7" d="M232.26,164.59c-.88,0-1.61-.46-2.18-1.37-.49-.79-.93-2.09-1.32-3.92l-.88-4.21c-.67-2.61-1.73-8.38-3.19-17.3l-4.9,14.77-1.45,4.65c-.59,1.85-1.2,3.36-1.84,4.53-.69,1.24-1.61,1.86-2.77,1.86-.96,0-1.72-.52-2.28-1.57-.36-.69-.69-1.56-.98-2.62l-.71-2.72c-1.65-5.77-3.1-11.94-4.36-18.52l-.88,4.39-3.16,12.94c-.13,1.52-.54,3.77-1.23,6.74-.49,1.28-1.3,1.91-2.42,1.91-.8,0-1.44-.29-1.91-.86-.41-.49-.61-1.09-.61-1.81,0-2.73.56-6.08,1.69-10.05l2.7-9.87,1.42-7.72c.72-3.61,1.48-5.97,2.28-7.08.65-.95,1.46-1.42,2.43-1.42,1.06,0,1.85.6,2.38,1.81.64,1.45,1.32,4.42,2.06,8.89.87,5.37,2.21,11.19,4.04,17.44,2.42-6.29,4.51-12.84,6.27-19.65l.73-3.58c.29-1.44.68-2.6,1.15-3.48.64-1.21,1.51-1.81,2.62-1.81,1.4,0,2.47,1.35,3.21,4.07.26.93.58,2.86.96,5.78.96,7.38,2.16,13.69,3.6,18.91l1.2,4.21c.62,2.26.93,3.64.93,4.17,0,.7-.27,1.29-.8,1.76-.53.47-1.13.71-1.8.71Z"/>
          <path class="cls-7" d="M249.34,164.01c-2.74,0-5.1-1.01-7.08-3.04-2.21-2.25-3.36-5.28-3.48-9.09-.1-3.69.83-6.94,2.79-9.75,2.29-3.32,5.47-4.97,9.56-4.97,3.27,0,5.74,1.49,7.42,4.48,1.34,2.42,1.98,5.32,1.94,8.72-.05,3.63-1,6.72-2.84,9.29-2.09,2.91-4.86,4.36-8.31,4.36ZM250.81,142.13c-2.4-.02-4.27,1.13-5.61,3.43-1.06,1.84-1.59,3.95-1.59,6.32s.65,4.21,1.94,5.54c1.08,1.09,2.34,1.64,3.8,1.64,1.7,0,3.16-.62,4.39-1.86,1.39-1.37,2.12-3.23,2.2-5.56.23-6.32-1.48-9.49-5.12-9.51Z"/>
          <path class="cls-7" d="M285.33,164.3c-1.4,0-2.2-.77-2.38-2.3l-.69-5.36c-.23-1.91-.34-3.7-.34-5.36,0-.46.03-1.23.09-2.33.06-1.09.09-1.87.09-2.33,0-3.53-.65-5.29-1.96-5.29-1.83,0-3.58,1.09-5.24,3.26-1.5,1.98-2.68,4.48-3.53,7.5-.03.64-.11,1.44-.22,2.4-.1.82-.15,1.61-.15,2.38,0,.49.05,1.22.15,2.2.1.98.15,1.71.15,2.2,0,.73-.22,1.33-.67,1.79-.45.46-1.03.69-1.73.69s-1.3-.23-1.74-.69-.66-1.05-.66-1.79c0-.49-.05-1.22-.16-2.2s-.16-1.71-.16-2.2c0-1.68.12-4.01.35-7,.24-2.98.36-5.31.36-7,0-.52-.03-1.3-.09-2.33-.06-1.03-.09-1.8-.09-2.33,0-.7.23-1.28.7-1.73s1.04-.67,1.73-.67c1.5,0,2.33,1.06,2.47,3.19l.07,2.87c2.74-3.66,5.56-5.49,8.45-5.49,2.61,0,4.43,1.15,5.46,3.45.7,1.54,1.09,3.81,1.15,6.81v2.47l-.02,2.28c0,1.36.17,3.11.53,5.26.35,2.15.53,3.89.53,5.23,0,.72-.23,1.3-.7,1.75s-1.05.67-1.75.67Z"/>
          <path class="cls-7" d="M309.19,141.69c-.34,0-.75-.02-1.21-.05-.47-.03-.87-.05-1.21-.05-.38,0-1.49.12-3.33.37l.47,14.48.02,1.08.02,1.25c.07,3.58-.79,5.36-2.57,5.36-.65,0-1.22-.21-1.7-.64-.48-.42-.72-.96-.72-1.59s.02-1.55.07-2.79.07-2.17.07-2.79l-.49-14.31c-1.19-.05-3.01-.19-5.44-.42-1.45-.2-2.18-1.01-2.18-2.43,0-.72.22-1.31.66-1.79.44-.47,1-.71,1.69-.71l5.15.42c0-.83-.04-1.95-.11-3.34-.07-1.4-.11-2.41-.11-3.03,0-.69.24-1.25.71-1.7.47-.45,1.05-.67,1.74-.67,1.47,0,2.33,1.2,2.57,3.6.05.6.07,1.33.07,2.18l-.05,1.42-.02,1.52c2.03-.26,3.19-.39,3.48-.39,1.7,0,2.81.08,3.33.24,1,.33,1.49,1.09,1.49,2.3,0,.72-.22,1.31-.67,1.78-.45.46-1.03.7-1.73.7Z"/>
          <path class="cls-7" d="M327.88,163.69c-3.69,0-6.68-.92-8.97-2.77-2.5-2.04-3.75-4.9-3.75-8.57,0-4.25,1.03-7.81,3.09-10.68,2.24-3.14,5.23-4.7,8.97-4.7,2.71,0,4.92.46,6.64,1.37,2.11,1.13,3.16,2.86,3.16,5.19,0,1.63-.92,3.12-2.77,4.46-.82.59-2.55,1.5-5.19,2.74l-9.36,4.43c.91,1.36,2.05,2.38,3.42,3.06,1.36.69,2.95,1.03,4.77,1.03,1.13,0,2.45-.21,3.97-.64,1.93-.54,3.17-1.24,3.72-2.12.56-.87,1.15-1.31,1.79-1.31.57,0,1.08.22,1.53.65s.67.93.67,1.51c0,1.81-1.46,3.37-4.39,4.68-2.5,1.11-4.93,1.67-7.3,1.67ZM327.22,141.37c-1.99,0-3.65.77-4.97,2.32-1.32,1.54-2.31,3.87-2.96,6.97l7.52-3.58c2.96-1.44,5.06-2.69,6.32-3.75-1.41-1.31-3.37-1.96-5.9-1.96Z"/>
          <path class="cls-7" d="M360.47,143.7c-.9,0-1.53-.3-1.89-.91-.24-.43-.46-1.31-.64-2.65-1.22.31-3.11.88-5.66,1.72-2.63,1.04-3.95,2.33-3.97,3.87.49.18.97.31,1.45.39,3.76.67,6.55,1.59,8.38,2.77,2.66,1.71,3.99,4.2,3.99,7.45,0,2.66-1.15,4.67-3.45,6.03-1.91,1.11-4.33,1.67-7.25,1.67-2.14,0-4.18-.36-6.13-1.08-2.52-.91-3.77-2.19-3.77-3.82,0-.65.26-1.23.77-1.72s1.1-.73,1.75-.73c.51,0,1.16.39,1.96,1.18.39.38,1.27.69,2.65.93,1.09.2,2.02.3,2.77.3,1.37,0,2.58-.16,3.63-.49,1.52-.47,2.28-1.22,2.28-2.25,0-2.22-1.55-3.72-4.66-4.51l-2.55-.56c-2.17-.47-3.72-1.03-4.63-1.67-1.32-.92-1.98-2.3-1.98-4.14,0-3.41,1.61-5.85,4.83-7.3.98-.44,2.55-.97,4.7-1.58,2.16-.61,3.7-1.13,4.63-1.56.67-.29,1.4-.44,2.18-.44.7,0,1.28.23,1.73.69.45.46.67,1.05.67,1.79,0,.47.1,1.17.31,2.08.2.91.31,1.61.31,2.08,0,.74-.22,1.33-.67,1.79-.45.46-1.03.69-1.73.69Z"/>
          <path class="cls-7" d="M384.9,143.7c-.9,0-1.53-.3-1.89-.91-.24-.43-.46-1.31-.64-2.65-1.22.31-3.11.88-5.66,1.72-2.63,1.04-3.95,2.33-3.97,3.87.49.18.97.31,1.45.39,3.76.67,6.55,1.59,8.38,2.77,2.66,1.71,3.99,4.2,3.99,7.45,0,2.66-1.15,4.67-3.46,6.03-1.91,1.11-4.33,1.67-7.25,1.67-2.14,0-4.18-.36-6.13-1.08-2.52-.91-3.77-2.19-3.77-3.82,0-.65.26-1.23.77-1.72s1.1-.73,1.75-.73c.51,0,1.16.39,1.96,1.18.39.38,1.27.69,2.65.93,1.09.2,2.02.3,2.77.3,1.37,0,2.58-.16,3.63-.49,1.52-.47,2.28-1.22,2.28-2.25,0-2.22-1.55-3.72-4.66-4.51l-2.55-.56c-2.17-.47-3.72-1.03-4.63-1.67-1.32-.92-1.98-2.3-1.98-4.14,0-3.41,1.61-5.85,4.83-7.3.98-.44,2.55-.97,4.7-1.58,2.16-.61,3.7-1.13,4.63-1.56.67-.29,1.4-.44,2.18-.44.7,0,1.28.23,1.73.69.45.46.67,1.05.67,1.79,0,.47.1,1.17.31,2.08.2.91.3,1.61.3,2.08,0,.74-.22,1.33-.67,1.79-.45.46-1.03.69-1.73.69Z"/>
          <path class="cls-7" d="M401.97,164.01c-2.74,0-5.1-1.01-7.08-3.04-2.2-2.25-3.36-5.28-3.48-9.09-.1-3.69.83-6.94,2.79-9.75,2.29-3.32,5.47-4.97,9.56-4.97,3.27,0,5.74,1.49,7.42,4.48,1.34,2.42,1.98,5.32,1.94,8.72-.05,3.63-1,6.72-2.84,9.29-2.09,2.91-4.86,4.36-8.3,4.36ZM403.44,142.13c-2.4-.02-4.27,1.13-5.61,3.43-1.06,1.84-1.59,3.95-1.59,6.32s.65,4.21,1.94,5.54c1.08,1.09,2.34,1.64,3.8,1.64,1.7,0,3.16-.62,4.39-1.86,1.39-1.37,2.12-3.23,2.2-5.56.23-6.32-1.48-9.49-5.12-9.51Z"/>
          <path class="cls-7" d="M438.23,144.46c-.11,2.04-.93,3.06-2.45,3.06-1.4,0-2.11-.81-2.11-2.43,0-.31-.02-.88-.07-1.71l-.07-2.06c-2.58.31-4.65,1.04-6.2,2.18-1.45,1.06-2.66,2.66-3.63,4.8l.05,13.43c0,1.65-.81,2.47-2.43,2.47-1.44,0-2.16-.83-2.16-2.47v-17.2c0-.54.02-1.35.06-2.42.04-1.08.06-1.89.06-2.43,0-1.65.72-2.47,2.16-2.47,1.6,0,2.41,1.36,2.43,4.07,3.14-3.02,6.62-4.53,10.44-4.53,1.32,0,2.31.5,2.96,1.49s.98,2.5.98,4.51c0,.85,0,1.42-.02,1.71Z"/>
          <path class="cls-7" d="M449.06,151.44c0,.98.03,2.45.09,4.4.06,1.95.08,3.42.08,4.4,0,.72-.22,1.31-.66,1.76-.44.46-1.02.69-1.74.69s-1.28-.23-1.73-.69c-.45-.46-.67-1.04-.67-1.76,0-.98-.03-2.45-.09-4.4-.06-1.95-.09-3.42-.09-4.4,0-1.53.08-3.45.24-5.75.16-2.29.24-4.21.24-5.75,0-.73.22-1.33.67-1.79.45-.46,1.03-.69,1.73-.69s1.28.23,1.73.69c.45.46.67,1.05.67,1.79,0,1.54-.08,3.45-.24,5.75-.16,2.3-.24,4.21-.24,5.75ZM447.96,131.55c-.78,0-1.46-.28-2.03-.83-.57-.55-.86-1.22-.86-2.01s.29-1.45.86-2.01c.57-.56,1.25-.83,2.03-.83s1.46.28,2.02.83c.56.56.84,1.22.84,2.01s-.28,1.45-.84,2.01c-.56.56-1.24.83-2.02.83Z"/>
        </g>
        <g>
          <g>
            <path class="cls-7" d="M217.59,10.37c39.46,0,59.19,9.09,59.19,27.27,0,11.06-9.76,20.37-29.27,27.93-11.14,3.53-17.56,5.75-19.27,6.64v.66c1.33,6.21,2,11.31,2,15.3v2.65c-1.44,7.11-4.55,10.66-9.32,10.66h-3.33c-7.01,0-11-6.21-11.97-18.64-.4-5.53-3.06-10.62-7.98-15.28-.8,0-1.46-2-2-5.99.89-3.78,1.34-6,1.34-6.67-4.88-12.41-7.32-21.5-7.32-27.28,0-10.32,7.1-16.07,21.29-17.27h6.64ZM216.94,33.65l-1.34,2c2.62,8.15,4.62,12.36,5.98,12.63,12.12-3.02,20.77-6.13,25.94-9.32v-.65c0-1.31-10.19-2.86-30.58-4.65Z"/>
            <path class="cls-7" d="M295.09,25.64c4.83,0,8.6,3.55,11.31,10.66h1.34c15.28-6.21,26.8-9.32,34.57-9.32h.68c5.3,0,8.84,3.11,10.63,9.32v3.33c0,7.39-7.31,11.82-21.95,13.28-12.41,4.14-18.61,7.47-18.61,9.97-3.12,4.56-4.67,9.22-4.67,13.97.44,6.59.65,11.03.65,13.31-2.28,7.11-6.27,10.66-11.97,10.66-7.43,0-11.64-5.55-12.63-16.64-1.33-17.44-1.99-30.08-1.99-37.91v-9.97c0-6.21,4.21-9.77,12.63-10.66Z"/>
            <path class="cls-7" d="M394.16,31.66c13.74,1.2,20.61,6.95,20.61,17.27l11.97,49.9c-1.44,7.52-5.21,11.29-11.29,11.29h-.68c-7.09,0-11.74-5.76-13.97-17.27h-.66l-11.31,9.29c-4.14,3.12-9.91,4.68-17.3,4.68-11.57,0-20.65-6.88-27.25-20.63-.89-4.26-1.34-7.36-1.34-9.32,0-18.39,11.31-32.36,33.92-41.9,5-2.2,10.76-3.31,17.3-3.31ZM366.88,77.54c1.2,3.53,3.42,5.3,6.67,5.3,4.58,0,9.45-7.53,14.62-22.6v-1.99c0-.89-.66-1.34-1.99-1.34-12.86,4.96-19.3,11.84-19.3,20.63Z"/>
            <path class="cls-7" d="M445.46,15.67h5.3c6.65,2.3,9.98,6.52,9.98,12.65v5.99c-1.96,46.55-5.05,69.83-9.29,69.83-1.41,2.66-3.85,3.99-7.32,3.99h-1.34c-7.09-1.43-10.63-4.52-10.63-9.29v-3.33c3.1-29.36,4.65-48.2,4.65-56.55-1.77-3.63-2.65-6.29-2.65-7.98v-2.65c0-5.64,3.77-9.86,11.31-12.65Z"/>
            <path class="cls-7" d="M512.8,31.66c13.74,1.2,20.61,6.95,20.61,17.27l11.97,49.9c-1.44,7.52-5.21,11.29-11.29,11.29h-.68c-7.09,0-11.74-5.76-13.97-17.27h-.66l-11.31,9.29c-4.14,3.12-9.91,4.68-17.3,4.68-11.57,0-20.65-6.88-27.25-20.63-.89-4.26-1.34-7.36-1.34-9.32,0-18.39,11.31-32.36,33.92-41.9,5-2.2,10.76-3.31,17.3-3.31ZM485.53,77.54c1.2,3.53,3.42,5.3,6.67,5.3,4.58,0,9.45-7.53,14.62-22.6v-1.99c0-.89-.66-1.34-1.99-1.34-12.86,4.96-19.3,11.84-19.3,20.63Z"/>
            <path class="cls-7" d="M585.48,15.01c13.02,0,22.32,7.76,27.93,23.29.44,3.13.66,5.79.66,7.98,0,12.79-8.42,22.54-25.25,29.27-2.89,1.33-8.65,2.66-17.3,3.99v1.31c1.33,7.92,1.99,12.81,1.99,14.65v1.34c0,5.61-3.55,9.15-10.66,10.63h-1.31c-7.79,0-12.23-6.43-13.31-19.3-1.33-7.87-1.99-14.52-1.99-19.95v-6.64c0-19.34,8.64-33.98,25.94-43.92,5.89-1.77,10.33-2.65,13.31-2.65ZM571.51,53.6l1.99,1.31c11.08-2.07,16.62-5.62,16.62-10.63-1.14-3.55-3.14-5.33-5.99-5.33-4.79,1.52-8.56,5.07-11.31,10.66l-1.31,3.99Z"/>
            <path class="cls-7" d="M624.89,16.35h3.33c5.74,0,9.28,3.76,10.63,11.29v.68c-1.58,7.54-4.9,11.31-9.97,11.31h-3.99c-5.3,0-8.63-4-9.97-12,1.58-7.52,4.9-11.29,9.97-11.29ZM630.88,46.93c8.42,1.33,12.63,5.55,12.63,12.65v4.65c0,22.1-2.21,34.96-6.64,38.59-2.38,1.77-4.37,2.65-5.99,2.65h-2.65c-5.62,0-9.18-3.54-10.66-10.63,0-3.08.89-12.83,2.68-29.27-.89-1.73-1.34-4.17-1.34-7.32,0-6.14,3.99-9.91,11.97-11.31Z"/>
            <path class="cls-7" d="M659.98,32.31h2.68c3.1,0,6.64,2.21,10.63,6.64h.66c6.27-4.43,12.7-6.64,19.3-6.64,13.79,0,24,9.97,30.61,29.93,2.2,7.05,3.31,14.15,3.31,21.29v8.64c-1.52,7.98-5.51,11.97-11.97,11.97-7.52,0-11.29-4.87-11.29-14.62-1.63-21.74-5.62-32.6-11.97-32.6-5.87,0-11.42,8.87-16.64,26.62,0,7.87-3.11,13.19-9.32,15.96h-5.3c-7.54,0-11.31-8.87-11.31-26.62v-17.96c0-13.3,1.78-19.95,5.33-19.95,0-1.16,1.77-2.04,5.3-2.65Z"/>
          </g>
          <g>
            <path class="cls-11" d="M220.77,6.05c39.46,0,59.19,9.09,59.19,27.27,0,11.06-9.76,20.37-29.27,27.93-11.14,3.53-17.56,5.75-19.27,6.64v.66c1.33,6.21,2,11.31,2,15.3v2.65c-1.44,7.11-4.55,10.66-9.32,10.66h-3.33c-7.01,0-11-6.21-11.97-18.64-.4-5.53-3.06-10.62-7.98-15.28-.8,0-1.46-2-2-5.99.89-3.78,1.34-6,1.34-6.67-4.88-12.41-7.32-21.5-7.32-27.28,0-10.32,7.1-16.07,21.29-17.27h6.64ZM220.12,29.33l-1.34,2c2.62,8.15,4.62,12.36,5.98,12.63,12.12-3.02,20.77-6.13,25.94-9.32v-.65c0-1.31-10.19-2.86-30.58-4.65Z"/>
            <path class="cls-12" d="M298.26,21.33c4.83,0,8.6,3.55,11.31,10.66h1.34c15.28-6.21,26.8-9.32,34.57-9.32h.68c5.3,0,8.84,3.11,10.63,9.32v3.33c0,7.39-7.31,11.82-21.95,13.28-12.41,4.14-18.61,7.47-18.61,9.97-3.12,4.56-4.67,9.22-4.67,13.97.44,6.59.65,11.03.65,13.31-2.28,7.11-6.27,10.66-11.97,10.66-7.43,0-11.64-5.55-12.63-16.64-1.33-17.44-1.99-30.08-1.99-37.91v-9.97c0-6.21,4.21-9.77,12.63-10.66Z"/>
            <path class="cls-3" d="M397.33,27.34c13.74,1.2,20.61,6.95,20.61,17.27l11.97,49.9c-1.44,7.52-5.21,11.29-11.29,11.29h-.68c-7.09,0-11.74-5.76-13.97-17.27h-.66l-11.31,9.29c-4.14,3.12-9.91,4.68-17.3,4.68-11.57,0-20.65-6.88-27.25-20.63-.89-4.26-1.34-7.36-1.34-9.32,0-18.39,11.31-32.36,33.92-41.9,5-2.2,10.76-3.31,17.3-3.31ZM370.06,73.23c1.2,3.53,3.42,5.3,6.67,5.3,4.58,0,9.45-7.53,14.62-22.6v-1.99c0-.89-.66-1.34-1.99-1.34-12.86,4.96-19.3,11.84-19.3,20.63Z"/>
            <path class="cls-9" d="M448.63,11.35h5.3c6.65,2.3,9.98,6.52,9.98,12.65v5.99c-1.96,46.55-5.05,69.83-9.29,69.83-1.41,2.66-3.85,3.99-7.32,3.99h-1.34c-7.09-1.43-10.63-4.52-10.63-9.29v-3.33c3.1-29.36,4.65-48.2,4.65-56.55-1.77-3.63-2.65-6.29-2.65-7.98v-2.65c0-5.64,3.77-9.86,11.31-12.65Z"/>
            <path class="cls-10" d="M515.98,27.34c13.74,1.2,20.61,6.95,20.61,17.27l11.97,49.9c-1.44,7.52-5.21,11.29-11.29,11.29h-.68c-7.09,0-11.74-5.76-13.97-17.27h-.66l-11.31,9.29c-4.14,3.12-9.91,4.68-17.3,4.68-11.57,0-20.65-6.88-27.25-20.63-.89-4.26-1.34-7.36-1.34-9.32,0-18.39,11.31-32.36,33.92-41.9,5-2.2,10.76-3.31,17.3-3.31ZM488.71,73.23c1.2,3.53,3.42,5.3,6.67,5.3,4.58,0,9.45-7.53,14.62-22.6v-1.99c0-.89-.66-1.34-1.99-1.34-12.86,4.96-19.3,11.84-19.3,20.63Z"/>
            <path class="cls-6" d="M588.66,10.7c13.02,0,22.32,7.76,27.93,23.29.44,3.13.66,5.79.66,7.98,0,12.79-8.42,22.54-25.25,29.27-2.89,1.33-8.65,2.66-17.3,3.99v1.31c1.33,7.92,1.99,12.81,1.99,14.65v1.34c0,5.61-3.55,9.15-10.66,10.63h-1.31c-7.79,0-12.23-6.43-13.31-19.3-1.33-7.87-1.99-14.52-1.99-19.95v-6.64c0-19.34,8.64-33.98,25.94-43.92,5.89-1.77,10.33-2.65,13.31-2.65ZM574.69,49.28l1.99,1.31c11.08-2.07,16.62-5.62,16.62-10.63-1.14-3.55-3.14-5.33-5.99-5.33-4.79,1.52-8.56,5.07-11.31,10.66l-1.31,3.99Z"/>
            <path class="cls-13" d="M628.07,12.04h3.33c5.74,0,9.28,3.76,10.63,11.29v.68c-1.58,7.54-4.9,11.31-9.97,11.31h-3.99c-5.3,0-8.63-4-9.97-12,1.58-7.52,4.9-11.29,9.97-11.29ZM634.06,42.62c8.42,1.33,12.63,5.55,12.63,12.65v4.65c0,22.1-2.21,34.96-6.64,38.59-2.38,1.77-4.37,2.65-5.99,2.65h-2.65c-5.62,0-9.18-3.54-10.66-10.63,0-3.08.89-12.83,2.68-29.27-.89-1.73-1.34-4.17-1.34-7.32,0-6.14,3.99-9.91,11.97-11.31Z"/>
            <path class="cls-10" d="M663.16,28h2.68c3.1,0,6.64,2.21,10.63,6.64h.66c6.27-4.43,12.7-6.64,19.3-6.64,13.79,0,24,9.97,30.61,29.93,2.2,7.05,3.31,14.15,3.31,21.29v8.64c-1.52,7.98-5.51,11.97-11.97,11.97-7.52,0-11.29-4.87-11.29-14.62-1.63-21.74-5.62-32.6-11.97-32.6-5.87,0-11.42,8.87-16.64,26.62,0,7.87-3.11,13.19-9.32,15.96h-5.3c-7.54,0-11.31-8.87-11.31-26.62v-17.96c0-13.3,1.78-19.95,5.33-19.95,0-1.16,1.77-2.04,5.3-2.65Z"/>
          </g>
        </g>
        <g>
          <path class="cls-9" d="M163.67,151.18c-1.54,3.36-4.17,6.28-8.51,8.53-10.41,5.36-22.97,3.3-34.2,3.08-8.08-.17-21.76.05-36.88.14-31.39.17-68.93-.24-74.95-6.05-7.94-7.66-7.52-24.89-6.95-35.13.14-2.59.26-6.07.36-10.19.22-8.06.42-18.58.76-29.86C4.31,49.76,6.51,11.72,13.81,6.29,22.37-.06,70.32,2.66,83.38,2.83c.71.02,1.54,0,2.49-.02,9.79-.12,31.72-1.12,49.97,2.01,15.83,2.68,28.9,8.48,28.9,20.6,0,10.17,1.19,33.83,1.85,58.09.81,29.27.85,59.4-2.92,67.67Z"/>
          <path class="cls-12" d="M135.84,4.82l-50.39,78.06S31.88,101.33,2.55,111.55c.22-8.06.42-18.58.76-29.86C4.31,49.76,6.51,11.72,13.81,6.29,22.37-.06,70.32,2.66,83.38,2.83c.71.02,1.54,0,2.49-.02,9.79-.12,31.72-1.12,49.97,2.01Z"/>
          <path class="cls-6" d="M166.6,83.51h-.12s-39.96-3.88-33.21,1.23c7.28,5.52,4.08,23.91-10.48,20.22-14.56-3.67-4.45-20.03-6.42-20.83-3.79-1.54-29.72.61-31.47-1.85-1.75-2.44-2.32-33.7.59-35.55,2.18-1.37,3.49,4.91,9.91,2.46,6.4-2.46,11.07-9.81,6.99-16.55-4.08-6.73-12.96,3.55-15.74.62-1.75-1.83-.57-30.03-.57-30.03l-.21-.42c18.28-.22,78.88-3.51,78.88,22.61,0,10.17,1.19,33.83,1.85,58.09Z"/>
          <path class="cls-10" d="M84.88,118.43c-2.18,1.38-3.49-4.9-9.88-2.44-6.38,2.44-11.04,9.81-6.97,16.54,4.07,6.75,12.91-3.53,15.69-.61,1.73,1.83.57,30.03.57,30.03l-.21.97c-31.39.17-68.93-.24-74.95-6.05-7.94-7.66-7.52-24.89-6.95-35.13.42-7.68.6-22.99,1.12-40.04l.86-.03s39.82,3.89,33.09-1.21c-7.25-5.52-4.07-23.91,10.45-20.24,14.53,3.68,4.45,20.05,6.4,20.84,3.77,1.54,29.61-.62,31.34,1.83,1.75,2.46,2.32,33.71-.57,35.55Z"/>
          <path class="cls-7" d="M165.72,152.34s-.29.51-.84,1.5c-.14.25-.29.53-.47.83-.2.32-.53.7-.83,1.1-.64.78-1.35,1.79-2.32,2.53-.47.4-.97.83-1.5,1.28-.53.45-1.17.76-1.79,1.17-.32.19-.64.39-.98.6l-.51.31-.13.08-.06.04c-.09.05.12-.05-.23.11l-.25.11c-.68.29-1.39.59-2.12.9-1.36.69-3.29,1.15-5.25,1.67-1,.31-1.97.39-2.98.55-1.01.12-2.06.34-3.13.38-4.29.35-8.95.17-13.91-.08-2.48-.14-5.03-.26-7.64-.36-2.68-.07-5.4-.08-8.26-.1-11.44.02-24.35.04-38.44.07-14.11-.08-29.39-.11-45.62-1.53-4.06-.39-8.18-.87-12.38-1.78-2.1-.48-4.21-.99-6.43-2.14-.54-.22-1.13-.73-1.68-1.14-.11-.1-.05-.01-.3-.26l-.13-.15-.26-.29-.53-.59c-.35-.35-.71-.84-1.07-1.36-.33-.51-.76-1.02-1.01-1.53-2.32-4.05-3.4-8.49-4.01-12.91C.04,136.93-.05,132.46.02,127.99c.11-4.49.44-8.88.53-13.32.1-4.46.21-8.96.32-13.48.19-9.06.4-18.23.72-27.49.33-9.25.76-18.58,1.46-27.95.76-9.37,1.57-18.78,3.61-28.18.58-2.35,1.13-4.7,2.07-7.06.2-.59.47-1.18.77-1.77.28-.59.55-1.18.98-1.77l.59-.88c.21-.29.54-.58.81-.86.33-.29.48-.55.98-.83l.75-.47c1.44-.73,2.64-1.15,3.85-1.46,1.22-.34,2.42-.59,3.62-.8,2.4-.42,4.78-.71,7.14-.92C37.69-.05,47.05-.06,56.33.04c9.25.1,18.5.5,27.44.67,8.94-.04,18-.32,26.84-.03,8.86.26,17.59.97,26.06,2.5,4.23.79,8.4,1.81,12.41,3.26,4,1.45,7.9,3.37,11.14,6.25,1.67,1.37,2.98,3.18,4.08,5.05.93,1.97,1.65,4.08,1.74,6.22.1,1.1.12,2.07.11,3.03.01.97.02,1.93.04,2.89.05,1.92.09,3.83.14,5.72.23,7.58.46,14.91.75,21.95.55,14.08,1.06,26.99,1.51,38.44.36,11.46.53,21.46.38,29.73-.17,8.26-.66,14.79-1.34,19.3-.17,1.13-.39,2.14-.54,3.01-.23.89-.42,1.63-.57,2.23l-.71,1.94-.07.13ZM161.55,150.15c.05-.14.22-.56.5-1.28.14-.5.31-1.12.51-1.85.15-.78.36-1.67.54-2.72.71-4.18,1.31-10.54,1.61-18.7.38-8.16.54-18.11.5-29.53,0-11.43-.34-24.33-.8-38.4-.27-7.04-.54-14.37-.82-21.96-.06-1.9-.11-3.82-.17-5.75-.02-.97-.04-1.95-.05-2.92,0-.98-.02-1.96-.12-2.81-.06-1.8-.72-3.48-1.49-5.08-.95-1.52-2.03-3-3.52-4.17-2.84-2.45-6.44-4.18-10.23-5.47-3.8-1.3-7.82-2.21-11.93-2.88-8.24-1.34-16.82-1.79-25.55-1.97-8.76-.19-17.59.18-26.77.32-9.17-.17-18.25-.58-27.48-.68-9.2-.1-18.5-.09-27.67.69-2.29.2-4.56.48-6.78.87-1.11.19-2.2.42-3.24.71-1.06.25-2.06.68-2.73.97l-.74.46s-.22.24-.33.33c-.12.14-.27.22-.4.41l-.38.59c-.28.35-.5.83-.72,1.3-.23.46-.46.93-.63,1.46-.81,2.01-1.35,4.24-1.89,6.45-1.94,8.96-2.84,18.31-3.61,27.57-.73,9.28-1.2,18.56-1.57,27.78-.76,18.41-.9,36.68-1.74,54.21-.05,4.33.05,8.62.66,12.75.26,2.08.73,4.08,1.26,6.03.61,1.91,1.31,3.79,2.29,5.43.22.45.5.74.73,1.12l.36.54c.13.19.34.39.51.58.82.94,1.07,1.18,1.87,1.6,1.5.79,3.47,1.33,5.4,1.74,3.9.83,7.92,1.29,11.89,1.66,15.94,1.34,31.21,1.33,45.25,1.36,14.06,0,26.96-.32,38.43-.39,2.86-.02,5.68-.02,8.34.01,2.73.07,5.33.16,7.79.29,4.92.21,9.37.33,13.28-.02,7.71-.62,13.38-3.39,16.14-5.96.81-.6,1.18-1.23,1.63-1.73.21-.26.42-.45.6-.72.17-.31.33-.58.47-.83.41-.72.66-1.18.78-1.38Z"/>
          <path class="cls-7" d="M88.42,3.32s-.32,3.71-.59,10.21c-.13,3.25-.32,7.21-.3,11.71.01,1.12.03,2.28.08,3.46.06,1.15.14,2.43.34,3.37.02.14.05.14.06.22.02.05-.04-.1-.08-.13l-.18-.17.09.08c.05.04.14.13.16.14-.02-.04-.06-.07-.1-.09-.08-.03,0,0,0,0,.15.04.64-.01,1.17-.18,1.08-.34,2.31-.95,3.62-1.53,1.32-.57,2.72-1.2,4.44-1.48.85-.13,1.8-.17,2.78.07.97.23,1.92.78,2.61,1.48.34.35.65.72.9,1.11l.19.29.18.34.26.51.27.51.25.65c.16.44.34.88.42,1.31.44,1.73.45,3.61.02,5.38-.87,3.57-3.33,6.58-6.44,8.52-.79.48-1.61.9-2.48,1.25-.58.23-.86.28-1.31.43-.46.11-1.05.22-1.56.27-1.03.08-2.14-.07-3.14-.47-1.01-.39-1.85-1.03-2.55-1.63-.34-.3-.68-.6-.95-.82-.29-.26-.51-.3-.44-.29.15-.06,0,.06-.24.94-.41,1.53-.59,3.32-.75,5.07-.29,3.53-.36,7.16-.35,10.81.02,3.65.13,7.34.41,11,.15,1.81.31,3.7.68,5.31.04.22.1.34.15.5.02.01.02.01,0,.03-.31-.36-.05-.07-.1-.13l.06.06s.1.1.11.09c0-.04-.03-.08-.05-.08l.19.06c.13.06.35.09.53.14.79.17,1.69.26,2.59.33,7.3.44,14.8-.02,22.24.18.94.03,1.88.07,2.84.16.49.05.97.1,1.51.21.25.04.56.13.88.24-.28-.17.52.27.46.25l.07.05.08.07c.1.1.2.22.29.35.09.13.16.28.22.42.06.17.09.28.09.31l.04.36c.02.82-.11,1.25-.2,1.76l-.33,1.37c-.22.89-.45,1.74-.64,2.59-.76,3.35-1.02,6.83.43,9.3,1.4,2.47,4.46,3.69,7.56,4.06.9.21,1.47.04,2.17.07.33.03.67-.03,1.01-.13l1.01-.22c.63-.24,1.26-.51,1.83-.84.52-.42,1.12-.73,1.52-1.28,3.73-3.92,3.5-10.97.56-14.21-.45-.38-.64-.61-1.46-1.32-.12-.12-.24-.25-.36-.41-.11-.14-.23-.31-.34-.58-.23-.41-.34-1.37,0-2.03.07-.16.16-.31.26-.45.08-.11.17-.2.26-.3.2-.21.33-.29.5-.41.3-.2.57-.32.8-.42,1.79-.65,3.06-.68,4.44-.83,2.67-.21,5.12-.22,7.43-.2,4.61.04,8.6.24,11.89.42,6.57.35,10.32.67,10.32.67l-.46,4.69s-3.68-.43-10.16-.98c-3.24-.26-7.18-.54-11.67-.7-2.24-.07-4.64-.11-7.07.02-1.16.07-2.54.21-3.28.47-.17,0-.17.25.23-.4.2-.35.09-.94.02-1.05-.06-.11-.08-.14-.08-.14-.02-.02-.03-.03-.03-.03.21.18,1,.94,1.58,1.51,2.25,2.63,3.07,6.06,2.99,9.42-.09,3.36-1.24,6.93-3.87,9.65-.59.73-1.43,1.22-2.21,1.79-.82.48-1.73.86-2.63,1.17l-1.41.3c-.47.11-.95.18-1.45.16-.96-.01-2.09.06-2.84-.15l-1.25-.22-.76-.14-.67-.2c-.45-.13-.9-.27-1.34-.46-.45-.16-.89-.36-1.32-.6-1.74-.87-3.39-2.29-4.41-4.13-1.03-1.84-1.38-3.91-1.38-5.86.01-1.96.34-3.84.77-5.66.21-.91.46-1.8.69-2.67l.33-1.27c.09-.38.17-.84.16-.94,0,0,0,.01,0,.02,0-.03,0,.03.04.15.03.09.08.18.15.26.07.08.15.15.23.2.02,0-.03-.03-.05-.04l-.07-.05c-.1-.07.64.37.3.18-.11-.03-.24-.08-.44-.11-.35-.08-.78-.13-1.2-.17-.86-.08-1.75-.14-2.65-.16-7.27-.23-14.73.2-22.36-.29-.97-.08-1.93-.17-2.96-.4-.27-.07-.52-.11-.82-.22-.16-.06-.26-.08-.46-.17-.24-.11-.47-.26-.68-.41-.09-.07-.1-.09-.15-.13l-.06-.06c-.09-.11.12.15-.23-.25-.11-.19-.22-.4-.31-.6-.09-.28-.21-.6-.25-.84-.45-2.04-.58-3.87-.73-5.77-.26-3.76-.36-7.49-.36-11.2,0-3.71.1-7.38.41-11.04.18-1.84.35-3.64.86-5.54.07-.24.12-.47.24-.74.1-.25.16-.49.45-.92.35-.6,1.16-1.22,2.17-1.15.94.08,1.51.53,1.9.82.41.32.73.61,1.05.88,1.23,1.09,2.41,1.55,3.78,1.44.34-.04.6-.09.97-.17.36-.12.92-.28,1.12-.38.71-.29,1.39-.65,2.04-1.05,2.57-1.63,4.54-4.16,5.16-6.88.32-1.35.29-2.74-.05-4.03-.29-1.12-1.03-2.69-1.73-3.36-1.38-1.51-4.08-.47-6.49.71-1.24.59-2.45,1.26-3.91,1.78-.74.24-1.58.51-2.73.36-.31-.07-.56-.11-.93-.29-.18-.09-.36-.2-.53-.31l-.21-.17-.09-.08s-.3-.29-.22-.22l-.11-.14c-.12-.17-.29-.44-.32-.55-.09-.23-.2-.52-.24-.69-.38-1.55-.45-2.76-.56-4.02-.09-1.24-.15-2.43-.2-3.58-.17-4.6-.23-8.59-.24-11.88,0-6.57.01-10.33.01-10.33l4.71.19Z"/>
          <path class="cls-7" d="M81.94,161.86s.31-3.7.59-10.2c.13-3.25.32-7.2.3-11.69-.01-1.12-.03-2.28-.08-3.45-.06-1.14-.13-2.43-.34-3.38-.02-.14-.05-.17-.06-.24-.02-.07,0,.01.05.08.02.03.05.06.08.08,0,0,.27.25.13.12l-.05-.04-.18-.16s.04.06.06.06c.13.04.02.03.04.01-.13-.04-.62,0-1.14.17-1.07.33-2.3.94-3.6,1.52-1.32.58-2.72,1.2-4.42,1.49-.85.14-1.8.18-2.78-.06-.97-.23-1.93-.77-2.62-1.46-.34-.35-.66-.72-.9-1.11l-.19-.29c-.15-.25-.12-.22-.18-.34l-.26-.51-.27-.51-.25-.64c-.15-.43-.35-.88-.42-1.31-.45-1.72-.46-3.6-.04-5.37.86-3.56,3.29-6.58,6.39-8.54.78-.49,1.61-.91,2.48-1.26.14-.05.14-.08.4-.15l.31-.09.61-.19c.44-.12,1.04-.22,1.55-.28,1.03-.08,2.14.06,3.14.45,1.01.39,1.85,1.03,2.55,1.63l.96.83c.28.25.52.32.46.31-.02-.02-.05,0-.07.02,0-.02-.01-.02,0-.02h0c-.37.3-.07.06-.14.11l.12-.12c.12-.1.08-.12.06-.12-.01-.02-.03.03,0-.03l.09-.23c.07-.14.11-.34.17-.52.41-1.53.59-3.31.75-5.06.29-3.52.36-7.15.35-10.79-.02-3.64-.13-7.32-.4-10.98-.14-1.81-.31-3.69-.67-5.31-.04-.21-.1-.36-.15-.51-.03-.11-.03-.04-.03-.08h0c.31.35.05.06.1.12l-.13-.12c.09.13-.23-.07-.64-.14-.78-.17-1.68-.26-2.57-.34-7.29-.45-14.77.01-22.19-.18-.93-.03-1.88-.07-2.84-.16-.49-.05-.97-.1-1.51-.21-.25-.04-.55-.12-.88-.24l-.12-.04c-.74-.43-.24-.15-.43-.26-.05-.06-.03.01-.29-.3-.19-.23-.34-.58-.4-.81l-.04-.35c-.04-.85.1-1.28.19-1.79l.33-1.38c.22-.89.45-1.74.63-2.59.76-3.34,1.03-6.82-.4-9.31-1.38-2.47-4.41-3.72-7.5-4.09-.9-.21-1.48-.06-2.17-.08h-.5s-.51.12-.51.12l-1.01.22c-.64.22-1.25.51-1.83.83-.51.43-1.12.73-1.52,1.28-3.72,3.91-3.51,10.93-.61,14.2l.59.53.28.27c.28.24.22.16.53.46.25.24.48.49.71.92.22.39.44,1.19.18,1.96-.25.7-.71,1.12-.99,1.31-.33.25-.58.35-.82.46-.95.39-1.66.5-2.39.62-.72.11-1.4.19-2.07.24-2.66.21-5.11.22-7.42.21-4.61-.04-8.59-.24-11.87-.42-6.56-.35-10.3-.67-10.3-.67l.46-4.69s3.68.43,10.15.99c3.23.26,7.17.54,11.65.69,2.24.07,4.63.11,7.06-.02.6-.03,1.21-.09,1.78-.16.56-.07,1.17-.19,1.46-.31.06-.02.13-.06.06-.02,0,.01-.24.16-.36.55-.17.44,0,.88.05.98.07.13.07.11.08.11l-.71-.66-.92-.9c-2.21-2.65-3.02-6.07-2.93-9.42.09-3.36,1.26-6.91,3.89-9.63.59-.73,1.44-1.22,2.21-1.78.83-.46,1.73-.86,2.64-1.15l1.41-.3.71-.14h.75c.97,0,2.08-.06,2.83.14l1.25.22.31.05.16.03.21.04.08.03.67.2c.89.26,1.79.61,2.65,1.07,1.74.87,3.36,2.32,4.38,4.16,1,1.85,1.35,3.91,1.34,5.86-.02,1.95-.35,3.83-.78,5.64-.21.91-.46,1.8-.69,2.66l-.32,1.26c-.09.38-.16.84-.15.91,0,0,0-.01-.01-.01-.02-.13-.12-.37-.27-.49-.24-.19-.11-.07-.08-.05-.14-.08.4.24-.29-.16h.05c.1.05.25.09.44.13.36.07.78.13,1.21.17.86.08,1.75.13,2.65.16,7.26.23,14.71-.21,22.32.3.97.09,1.93.18,2.97.41.26.06.53.12.83.24.17.02.88.39,1.12.62l.13.12c.09.11-.12-.15.22.25l.08.15c.1.18.24.44.26.56.1.29.19.59.24.83.43,2.02.56,3.86.71,5.75.26,3.76.35,7.48.35,11.18-.01,3.7-.1,7.37-.41,11.02-.18,1.84-.35,3.63-.86,5.54-.21.69-.74,2.87-2.91,2.78-.93-.11-1.46-.55-1.86-.85l-1.04-.88c-1.23-1.09-2.4-1.54-3.77-1.42-.34.06-.59.08-.98.18l-.61.2-.3.1s-.14.06-.19.09c-.71.29-1.39.65-2.03,1.06-2.56,1.64-4.5,4.18-5.11,6.89-.31,1.35-.28,2.74.07,4.02.3,1.11,1.03,2.69,1.74,3.35,1.38,1.49,4.08.45,6.48-.74,1.23-.59,2.44-1.26,3.91-1.78.75-.24,1.59-.51,2.76-.33.32.09.55.11.95.33.17.09.39.23.48.3l.19.15.05.04c-.11-.11.19.18.21.21.07.09.14.18.2.28.14.2.24.42.27.5.09.24.19.51.22.68.37,1.54.43,2.74.55,4.01.09,1.24.15,2.43.19,3.58.17,4.6.23,8.57.24,11.85,0,6.56-.01,10.31-.01,10.31l-4.71-.19Z"/>
          <g class="cls-2">
            <path class="cls-8" d="M14.52,152.61c-.67-.03-1.21-.5-1.67-.94l-.66-.74-.53-.83c-.66-1.13-1.2-2.34-1.59-3.57-.47-1.23-.72-2.49-1.06-3.75-.31-1.26-.47-2.54-.72-3.81-.23-1.28-.34-2.55-.51-3.84-.16-1.28-.26-2.57-.33-3.85l-.25-3.85-.06-3.85c0-1.28-.07-2.57-.03-3.85l.09-3.84c.05-2.57.19-5.12.34-7.67.15-2.56.33-5.11.59-7.65.23-2.55.48-5.09.76-7.63l.15-1.32,1.27-.1c2.66-.2,5.32-.44,7.99-.59,2.67-.17,5.33-.36,8-.48,5.34-.29,10.68-.49,16.04-.53-5.26,1.02-10.54,1.88-15.83,2.64-2.64.41-5.29.74-7.94,1.1-2.65.37-5.3.67-7.95.99l1.41-1.42c-.15,2.54-.34,5.07-.55,7.6-.23,2.53-.34,5.06-.5,7.6-.19,2.53-.36,5.06-.45,7.59l-.19,3.8c-.09,1.27-.08,2.53-.13,3.79-.08,2.53-.12,5.06-.11,7.58-.02,1.27,0,2.53.06,3.78.06,1.26.03,2.53.14,3.78.11,1.25.17,2.52.33,3.76.18,1.24.27,2.51.57,3.71.24,1.23.55,2.44,1.02,3.59l.37.86.48.79c.36.48.78,1.02,1.42,1.16Z"/>
          </g>
          <g class="cls-2">
            <path class="cls-8" d="M57.19,89.9s1.28-.58,3.2-.99c1.92-.46,4.48-.73,7.05-.74,2.56,0,5.12.27,7.05.74,1.92.41,3.2.99,3.2.99,0,0-1.28.58-3.2.99-1.92.46-4.48.73-7.05.74-2.56,0-5.12-.28-7.05-.74-1.92-.41-3.2-.99-3.2-.99Z"/>
          </g>
          <g class="cls-2">
            <path class="cls-8" d="M44.41,66.29s-.41.81-.79,1.71c-.39.94-.64,1.89-.79,2.81-.01.25-.07.48-.09.74.01.26-.08.51-.07.78-.04.54-.06,1.09-.1,1.62-.05.52-.05.99-.11,1.35-.05.36-.1.59-.1.59,0,0-.2-.09-.52-.28-.29-.2-.77-.48-1.14-.96-.2-.23-.41-.5-.6-.79-.18-.31-.32-.66-.46-1.03-.15-.36-.2-.8-.26-1.22-.07-.43,0-.89.03-1.34.11-.45.19-.91.4-1.31.18-.42.42-.8.7-1.12.25-.34.58-.59.87-.83.31-.21.62-.38.92-.5.58-.26,1.13-.3,1.51-.3.38,0,.6.07.6.07Z"/>
          </g>
          <g class="cls-2">
            <path class="cls-8" d="M11.64,73.82s-.03-1.82.02-4.99c.09-3.17.13-7.71.41-13.15.25-5.44.67-11.78,1.32-18.56.35-3.39.69-6.9,1.21-10.45.52-3.56,1.07-7.16,2-10.82.25-.92.53-1.83.93-2.8.22-.49.42-.97.86-1.56.08-.13.27-.32.42-.47.06-.07.2-.17.32-.26l.19-.12.1-.06c-.15.06.32-.14.28-.12l.65-.19c.79-.29,1.96-.4,2.94-.57.99-.13,1.84-.19,2.77-.29,3.61-.32,7.14-.41,10.54-.5,3.41-.11,6.7-.1,9.82-.09,3.12,0,6.07.05,8.79.12,5.44.11,9.97.38,13.15.51,3.17.17,4.98.32,4.98.32,0,0-1.81.15-4.98.35-3.17.19-7.69.47-13.12.8-5.42.3-11.74.65-18.51,1.03-3.38.18-6.86.47-10.36.78-.85.1-1.78.18-2.57.29l-1.13.17c-.19.03-.37.04-.57.09l-.65.2-.65.2.23-.09.05-.03s.07-.07.06-.04c0,.02,0-.02-.03.04-.11.13-.28.49-.42.82-.29.71-.53,1.54-.76,2.37-.9,3.36-1.49,6.92-2.04,10.41-.53,3.5-1.06,6.96-1.49,10.31-.87,6.73-1.68,13-2.37,18.39-.71,5.39-1.3,9.88-1.71,13.03-.42,3.15-.69,4.94-.69,4.94Z"/>
          </g>
          <g class="cls-2">
            <path class="cls-8" d="M93.08,23.6c-.3-2.31-.53-4.61-.72-6.92-.21-2.31-.33-4.61-.48-6.92l-.08-1.18,1.31-.02c2.24-.04,4.48-.1,6.72-.09,2.23.02,4.47,0,6.71.07,4.47.11,8.94.28,13.41.59,2.23.15,4.46.35,6.69.54,2.23.22,4.46.51,6.69.76,2.22.29,4.45.69,6.66,1.09,1.1.19,2.21.39,3.31.74,1.1.3,2.17.64,3.23.96-1.14-.06-2.26-.11-3.36-.19-1.1-.1-2.21-.1-3.33-.12-2.24.01-4.44-.16-6.68-.13-2.23-.05-4.46-.07-6.68-.15-2.23-.08-4.46-.09-6.68-.18l-6.68-.25-6.68-.34c-2.23-.1-4.45-.28-6.68-.41-2.23-.13-4.45-.34-6.68-.5l1.23-1.2c-.15,2.31-.27,4.61-.48,6.92-.18,2.31-.42,4.61-.72,6.92Z"/>
          </g>
          <g class="cls-2">
            <path class="cls-8" d="M90.63,54.34s.39,1.36.59,3.32c.25,1.96.29,4.53.18,7.06-.05,1.26-.14,2.52-.24,3.69-.12,1.17-.23,2.27-.33,3.21-.03.47-.11.92-.12,1.29,0,.38-.08.75-.07,1.02,0,.56-.01.94-.01.94,0,0-.24-.23-.64-.72-.2-.25-.37-.57-.57-.95-.22-.38-.39-.82-.56-1.32-.72-1.97-1.03-4.67-.92-7.31.12-2.64.64-5.23,1.31-7.12.62-1.9,1.38-3.1,1.38-3.1Z"/>
          </g>
          <g class="cls-2">
            <path class="cls-8" d="M90.63,155.41s-.58-1.62-.99-4.05c-.46-2.43-.73-5.67-.74-8.91,0-3.24.28-6.48.74-8.91.41-2.43.99-4.05.99-4.05,0,0,.58,1.62.99,4.05.46,2.43.73,5.67.74,8.91,0,3.24-.28,6.48-.74,8.91-.41,2.43-.99,4.05-.99,4.05Z"/>
          </g>
          <g class="cls-2">
            <path class="cls-8" d="M93.08,110.66c-.45-1.73-.73-3.46-.96-5.19-.11-.86-.24-1.73-.3-2.59-.07-.86-.18-1.73-.22-2.59-.1-1.73-.2-3.46-.22-5.19-.02-1.73-.02-3.46.04-5.19l.06-1.72,1.61.05c1.14.04,2.28.12,3.42.18,1.14.07,2.28.2,3.42.3,2.28.29,4.56.6,6.85,1.18-2.28.58-4.56.9-6.85,1.18-1.14.1-2.28.23-3.42.3-1.14.06-2.28.14-3.42.18l1.67-1.67c.06,1.73.07,3.46.04,5.19-.02,1.73-.12,3.46-.22,5.19-.04.86-.15,1.73-.22,2.59-.07.86-.19,1.73-.3,2.59-.23,1.73-.52,3.46-.96,5.19Z"/>
          </g>
          <g class="cls-2">
            <path class="cls-8" d="M73.33,127.78s-.71-.45-1.18-1.4c-.26-.47-.45-1.07-.48-1.77-.03-.34,0-.71.08-1.09.04-.38.23-.77.38-1.15.24-.37.43-.76.79-1.04.31-.33.68-.56,1.06-.72.37-.2.75-.24,1.1-.29.35-.07.67.01.95.07.57.07.97.36,1.25.54.27.2.41.34.41.34,0,0-.16.15-.41.35-.12.1-.27.22-.42.32-.16.1-.3.28-.46.4-.15.14-.32.26-.42.43-.12.15-.26.26-.32.41-.04.07-.09.13-.13.18-.03.08-.06.15-.1.2-.09.1-.13.27-.22.39-.29.58-.68,1.49-1.08,2.32-.36.81-.79,1.52-.79,1.52Z"/>
          </g>
          <g class="cls-1">
            <path class="cls-4" d="M158.67,28.79s.64,4.77,1.11,11.93c.26,3.58.48,7.76.63,12.24.06,2.24.17,4.56.18,6.91.02,2.36.04,4.75.05,7.14-.02,1.2-.04,2.4-.07,3.6l-.06,1.81-.05.94c-.01.17-.02.31-.06.58-.01.06,0,.09-.07.33l-.04.14c-.11.2.18-.25-.27.47-.46.83-2.1.68-2.16.43-.18-.1-.36-.26-.5-.45-.04-.07-.1-.11-.15-.17.02.07.16.26.29.33.07.04.14.08.21.09.04.01-.02,0-.03,0-.09-.02-.15-.04-.26-.06-.23-.03-.46-.07-.74-.09-.52-.06-1.08-.09-1.63-.12-1.11-.05-2.23-.07-3.34-.07-4.46.04-8.62.08-12.19.11-7.16.1-11.97-.03-11.97-.03,0,0,4.7-1.03,11.83-1.95,3.57-.47,7.73-.94,12.26-1.18,1.13-.06,2.29-.1,3.48-.1.6,0,1.2,0,1.84.04.31.02.66.06,1,.11.17.02.4.08.6.13.06.02.07.01.18.05.14.05.28.11.41.18.26.13.55.36.69.51.05.05.11.11.14.16-.13-.17-.31-.31-.47-.4-.05-.25-1.68-.42-2.12.4-.43.72-.14.24-.24.43l-.03.09c-.04.17-.03.12-.03.12l.02-.3.03-.83.03-1.75c0-1.18,0-2.37,0-3.56.02-2.38.05-4.77.07-7.12,0-2.35.09-4.66.12-6.9.1-4.48.25-8.66.44-12.24.34-7.17.86-11.95.86-11.95Z"/>
          </g>
          <g class="cls-1">
            <path class="cls-4" d="M119.81,95.95s1.04-.14,2.36-.11c1.32-.03,2.99.17,4.34.13.33,0,.66-.01.91-.06.31,0,.46-.11.72-.12.14-.13.43-.11.57-.3.17-.15.43-.28.56-.53.14-.23.36-.43.48-.66.1-.23.23-.44.33-.63.21-.36.35-.6.35-.6,0,0,.14.2.33.61.09.2.21.45.3.76.1.3.1.67.11,1.09.05.42-.09.89-.29,1.4-.14.52-.61.95-1.03,1.41-.48.32-1.05.72-1.61.83-.58.21-1.13.24-1.68.27-2.17.01-3.92-.86-5.06-1.73-1.16-.85-1.7-1.76-1.7-1.76Z"/>
          </g>
          <g class="cls-1">
            <path class="cls-4" d="M161.55,93.08s.36,6.46.01,16.14c-.16,4.84-.5,10.49-1.18,16.53-.36,3.02-.74,6.14-1.35,9.31-.62,3.16-1.3,6.37-2.53,9.58-.32.8-.67,1.6-1.15,2.4-.22.4-.47.8-.81,1.2-.19.23-.23.34-.56.65l-.45.4c-1.55,1.32-3.17,1.99-4.73,2.6-3.15,1.2-6.29,1.76-9.31,2.3-6.06.97-11.72,1.32-16.57,1.48-9.7.31-16.15-.25-16.15-.25,0,0,1.6-.16,4.41-.45,2.8-.29,6.81-.71,11.59-1.28,4.77-.6,10.34-1.31,16.17-2.49,2.9-.6,5.89-1.35,8.67-2.42,1.38-.54,2.72-1.2,3.62-1.98l.44-.41.2-.28c.19-.21.36-.5.52-.8.34-.58.64-1.26.91-1.95,1.12-2.79,1.84-5.9,2.46-8.94.61-3.06,1.17-6.1,1.61-9.07.91-5.93,1.61-11.5,2.22-16.28,1.18-9.59,1.96-15.99,1.96-15.99Z"/>
          </g>
          <g class="cls-1">
            <path class="cls-4" d="M77.69,142.45c-.01,2.22-.17,4.42-.32,6.62-.19,2.19-.38,4.39-.65,6.56l-.13,1.03-1.19.07c-3.34.2-6.69.33-10.03.35-3.34.07-6.69,0-10.03-.05-3.34-.1-6.69-.25-10.03-.5-3.34-.27-6.69-.59-10.03-1.14,3.34-.55,6.69-.87,10.03-1.14,3.34-.25,6.69-.4,10.03-.5,3.34-.06,6.69-.12,10.03-.05,3.34.02,6.69.16,10.03.35l-1.31,1.1c.49-2.14,1.06-4.27,1.63-6.39.61-2.12,1.21-4.24,1.96-6.33Z"/>
          </g>
          <g class="cls-1">
            <path class="cls-4" d="M77.69,20.71s.58.8.99,2.01c.46,1.2.73,2.81.74,4.42,0,1.61-.28,3.21-.74,4.42-.41,1.2-.99,2.01-.99,2.01,0,0-.58-.8-.99-2.01-.46-1.2-.73-2.81-.74-4.42,0-1.61.28-3.21.74-4.42.41-1.2.99-2.01.99-2.01Z"/>
          </g>
          <g class="cls-1">
            <path class="cls-4" d="M75.4,54.34c.46,1.62.75,3.25.98,4.87.12.81.23,1.62.31,2.43.08.81.18,1.62.22,2.43.11,1.62.2,3.25.21,4.87.03,1.62,0,3.25-.07,4.87l-.07,1.74-1.58-.1-2.97-.19c-.99-.11-1.98-.19-2.97-.32-1.98-.27-3.96-.59-5.94-1.14,1.98-.55,3.96-.87,5.94-1.14.99-.12,1.98-.21,2.97-.32l2.97-.19-1.65,1.65c-.06-1.62-.1-3.25-.07-4.87,0-1.62.1-3.25.21-4.87.04-.81.14-1.62.22-2.43.07-.81.19-1.62.31-2.43.23-1.62.53-3.25.98-4.87Z"/>
          </g>
          <g class="cls-1">
            <path class="cls-4" d="M99.93,38.59s.11.2.2.58c.09.38.16.93.03,1.59-.05.33-.15.69-.31,1.05-.18.35-.38.74-.69,1.08-.29.36-.66.67-1.08.93-.41.27-.9.44-1.36.59-.48.07-.97.21-1.42.15-.46-.02-.91-.05-1.3-.19-.81-.21-1.45-.59-1.96-.98-.51-.36-.83-.81-1.07-1.1-.22-.31-.33-.51-.33-.51,0,0,.23-.06.6-.13.37-.07.86-.1,1.4-.16.27-.04.56-.08.84-.08.29,0,.56-.09.84-.09.29,0,.54-.09.8-.11.27-.01.48-.12.72-.15.87-.21,1.73-.62,2.59-1.25.4-.3.78-.61,1.05-.84.28-.23.45-.39.45-.39Z"/>
          </g>
        </g>
      </g>
    </g>
  </g>
</svg>