<?xml version="1.0" encoding="UTF-8"?>
<svg id="Layer_1" data-name="Layer 1" xmlns="http://www.w3.org/2000/svg" viewBox="0 0 724.57 141.74">
  <defs>
    <style>
      .cls-1 {
        fill: #5b9099;
      }

      .cls-2 {
        fill: #d78635;
      }

      .cls-3 {
        fill: #5c9e84;
      }
    </style>
  </defs>
  <g>
    <path class="cls-1" d="M217.62,78.56c-2.98-1.28-5.56-3.15-7.76-5.59-.25-.29-.38-.58-.38-.85,0-.32.16-.63.47-.95l4.86-4.68c.27-.27.56-.41.85-.41.34,0,.64.16.92.47,1.41,1.45,3.01,2.55,4.8,3.3,1.79.75,3.63,1.12,5.53,1.12,2.02,0,3.57-.37,4.66-1.12,1.08-.75,1.63-1.77,1.63-3.08,0-.88-.25-1.64-.74-2.26-.49-.62-1.35-1.21-2.56-1.75-1.21-.55-2.94-1.15-5.2-1.8-3.66-1.05-6.84-2.65-9.54-4.8-2.7-2.15-4.04-5.14-4.04-8.97,0-2.3.59-4.4,1.77-6.32,1.18-1.92,2.95-3.45,5.31-4.6,2.36-1.15,5.23-1.72,8.62-1.72,2.86,0,5.61.51,8.23,1.53,2.62,1.02,4.96,2.41,7.03,4.15.32.25.47.55.47.88,0,.3-.13.59-.38.88l-4.45,5.05c-.27.34-.58.51-.92.51-.27,0-.56-.12-.85-.35-1.22-.95-2.62-1.74-4.18-2.39-1.57-.64-3.11-.96-4.63-.96-1.73,0-3.08.29-4.06.87-.98.58-1.47,1.43-1.47,2.54,0,.88.28,1.62.85,2.2s1.32,1.07,2.26,1.48c.94.41,2.34.92,4.22,1.53.08.02.35.11.79.25,3.03,1.01,5.54,2.1,7.52,3.25,1.98,1.16,3.53,2.59,4.64,4.3s1.67,3.79,1.67,6.25c0,2.8-.68,5.25-2.05,7.36-1.37,2.11-3.3,3.73-5.78,4.86-2.48,1.14-5.35,1.71-8.59,1.71s-6.54-.64-9.52-1.93Z"/>
    <path class="cls-1" d="M259.46,79.76h-7.71c-.84,0-1.26-.42-1.26-1.26v-41.85c0-.84.42-1.26,1.26-1.26h7.71c.84,0,1.26.42,1.26,1.26v15.1h18.04v-15.1c0-.84.42-1.26,1.26-1.26h7.74c.84,0,1.26.42,1.26,1.26v41.85c0,.84-.42,1.26-1.26,1.26h-7.74c-.84,0-1.26-.42-1.26-1.26v-16.96h-18.04v16.96c0,.84-.42,1.26-1.26,1.26Z"/>
    <path class="cls-1" d="M298.53,78.5v-41.85c0-.84.42-1.26,1.26-1.26h17.56c3.03,0,5.72.63,8.05,1.9s4.16,3.02,5.46,5.28c1.31,2.25,1.96,4.84,1.96,7.77s-.61,5.32-1.82,7.36c-1.21,2.04-2.9,3.69-5.07,4.93l7.77,15.67c.13.25.19.47.19.66,0,.25-.1.45-.3.6-.2.15-.47.22-.81.22h-8.84c-.7,0-1.19-.32-1.48-.95l-6.32-13.55c-.38.02-.94.03-1.67.03h-5.72v13.2c0,.84-.42,1.26-1.26,1.26h-7.71c-.84,0-1.26-.42-1.26-1.26ZM319.52,55.66c.92-.55,1.63-1.29,2.15-2.23.52-.94.77-1.96.77-3.08,0-1.24-.26-2.31-.79-3.21-.53-.89-1.24-1.57-2.13-2.02-.9-.45-1.9-.68-3.02-.68h-7.74v12.03h7.64c1.16,0,2.2-.27,3.11-.82Z"/>
    <path class="cls-1" d="M349.54,79.76h-7.71c-.84,0-1.26-.42-1.26-1.26v-41.85c0-.84.42-1.26,1.26-1.26h7.71c.84,0,1.26.42,1.26,1.26v41.85c0,.84-.42,1.26-1.26,1.26Z"/>
    <path class="cls-1" d="M381.43,78.56c-2.98-1.28-5.56-3.15-7.75-5.59-.25-.29-.38-.58-.38-.85,0-.32.16-.63.47-.95l4.86-4.68c.27-.27.56-.41.85-.41.34,0,.64.16.92.47,1.41,1.45,3.01,2.55,4.8,3.3,1.79.75,3.63,1.12,5.53,1.12,2.02,0,3.57-.37,4.66-1.12,1.08-.75,1.63-1.77,1.63-3.08,0-.88-.25-1.64-.74-2.26-.49-.62-1.35-1.21-2.56-1.75-1.21-.55-2.94-1.15-5.2-1.8-3.66-1.05-6.84-2.65-9.54-4.8-2.7-2.15-4.04-5.14-4.04-8.97,0-2.3.59-4.4,1.77-6.32,1.18-1.92,2.95-3.45,5.31-4.6s5.23-1.72,8.62-1.72c2.86,0,5.61.51,8.23,1.53,2.62,1.02,4.96,2.41,7.03,4.15.32.25.47.55.47.88,0,.3-.13.59-.38.88l-4.45,5.05c-.27.34-.58.51-.92.51-.27,0-.56-.12-.85-.35-1.22-.95-2.62-1.74-4.19-2.39-1.57-.64-3.11-.96-4.63-.96-1.73,0-3.08.29-4.06.87-.98.58-1.47,1.43-1.47,2.54,0,.88.28,1.62.85,2.2.57.58,1.32,1.07,2.26,1.48.94.41,2.34.92,4.22,1.53.08.02.35.11.79.25,3.03,1.01,5.54,2.1,7.52,3.25,1.98,1.16,3.53,2.59,4.64,4.3s1.67,3.79,1.67,6.25c0,2.8-.68,5.25-2.05,7.36-1.37,2.11-3.3,3.73-5.78,4.86-2.48,1.14-5.35,1.71-8.59,1.71s-6.54-.64-9.52-1.93Z"/>
    <path class="cls-1" d="M423.27,79.76h-7.71c-.84,0-1.26-.42-1.26-1.26v-41.85c0-.84.42-1.26,1.26-1.26h7.71c.84,0,1.26.42,1.26,1.26v15.1h18.04v-15.1c0-.84.42-1.26,1.26-1.26h7.74c.84,0,1.26.42,1.26,1.26v41.85c0,.84-.42,1.26-1.26,1.26h-7.74c-.84,0-1.26-.42-1.26-1.26v-16.96h-18.04v16.96c0,.84-.42,1.26-1.26,1.26Z"/>
    <path class="cls-1" d="M500.88,78.84c0,.3-.1.52-.28.68s-.45.24-.79.24h-7.93c-.72,0-1.19-.35-1.42-1.04l-2.34-6.51h-16.96l-2.31,6.51c-.21.69-.68,1.04-1.42,1.04h-7.93c-.34,0-.61-.08-.8-.24-.2-.16-.3-.38-.3-.68,0-.17.03-.35.09-.54l16.3-41.98c.25-.67.74-1.01,1.45-1.01h6.85c.74,0,1.23.34,1.48,1.01l16.2,41.98c.06.19.1.37.1.54ZM485.18,63.59l-5.05-14.25-.51-1.8-.44,1.8-5.05,14.25h11.06Z"/>
    <path class="cls-1" d="M515.22,79.76h-7.46c-.84,0-1.26-.42-1.26-1.26v-41.85c0-.84.42-1.26,1.26-1.26h8.4c.67,0,1.18.27,1.52.82l17.28,26.22v-25.78c0-.84.42-1.26,1.26-1.26h7.45c.84,0,1.26.42,1.26,1.26v41.85c0,.84-.42,1.26-1.26,1.26h-7.49c-.65,0-1.16-.27-1.52-.82l-18.19-27.42v26.97c0,.84-.42,1.26-1.26,1.26Z"/>
    <path class="cls-1" d="M593.87,79c0,.23-.09.42-.28.55-.19.14-.45.21-.79.21h-9.41c-.67,0-1.18-.27-1.52-.82l-11.62-17.31-5.53,6.35v10.52c0,.84-.42,1.26-1.26,1.26h-7.71c-.84,0-1.26-.42-1.26-1.26v-41.85c0-.84.42-1.26,1.26-1.26h7.71c.84,0,1.26.42,1.26,1.26v17.4l14.88-17.94c.4-.48.92-.73,1.55-.73h9.54c.34,0,.6.06.79.19.19.13.28.31.28.54,0,.25-.13.53-.38.82l-14.5,16.9,16.74,24.42c.17.25.25.5.25.76Z"/>
    <path class="cls-1" d="M638.37,78.84c0,.3-.1.52-.28.68s-.45.24-.79.24h-7.93c-.72,0-1.19-.35-1.42-1.04l-2.34-6.51h-16.96l-2.31,6.51c-.21.69-.68,1.04-1.42,1.04h-7.93c-.34,0-.61-.08-.8-.24-.2-.16-.3-.38-.3-.68,0-.17.03-.35.09-.54l16.3-41.98c.25-.67.74-1.01,1.45-1.01h6.85c.74,0,1.23.34,1.48,1.01l16.2,41.98c.06.19.1.37.1.54ZM622.67,63.59l-5.05-14.25-.51-1.8-.44,1.8-5.05,14.25h11.06Z"/>
    <path class="cls-1" d="M643.99,78.5v-41.85c0-.84.42-1.26,1.26-1.26h17.56c3.03,0,5.72.63,8.05,1.9s4.16,3.02,5.46,5.28,1.96,4.84,1.96,7.77-.61,5.32-1.82,7.36c-1.21,2.04-2.9,3.69-5.07,4.93l7.77,15.67c.13.25.19.47.19.66,0,.25-.1.45-.3.6-.2.15-.47.22-.8.22h-8.84c-.7,0-1.19-.32-1.48-.95l-6.32-13.55c-.38.02-.94.03-1.67.03h-5.72v13.2c0,.84-.42,1.26-1.26,1.26h-7.71c-.84,0-1.26-.42-1.26-1.26ZM664.98,55.66c.92-.55,1.63-1.29,2.15-2.23.51-.94.77-1.96.77-3.08,0-1.24-.26-2.31-.79-3.21-.53-.89-1.24-1.57-2.13-2.02-.9-.45-1.9-.68-3.02-.68h-7.74v12.03h7.64c1.16,0,2.2-.27,3.11-.82Z"/>
    <path class="cls-1" d="M724.57,78.84c0,.3-.1.52-.28.68s-.45.24-.79.24h-7.93c-.72,0-1.19-.35-1.42-1.04l-2.34-6.51h-16.96l-2.31,6.51c-.21.69-.68,1.04-1.42,1.04h-7.93c-.34,0-.61-.08-.8-.24-.2-.16-.3-.38-.3-.68,0-.17.03-.35.09-.54l16.3-41.98c.25-.67.74-1.01,1.45-1.01h6.85c.74,0,1.23.34,1.48,1.01l16.2,41.98c.06.19.1.37.1.54ZM708.87,63.59l-5.05-14.25-.51-1.8-.44,1.8-5.05,14.25h11.06Z"/>
    <path class="cls-1" d="M230.54,124.6h-18.91c-.53,0-.8-.27-.8-.8v-26.43c0-.53.27-.8.8-.8h18.63c.53,0,.8.27.8.8v4.29c0,.53-.27.8-.8.8h-12.97v5.05h9.97c.53,0,.8.27.8.8v3.95c0,.53-.27.8-.8.8h-9.97v5.67h13.25c.53,0,.8.27.8.8v4.29c0,.53-.27.8-.8.8Z"/>
    <path class="cls-1" d="M235.86,123.8v-26.43c0-.53.27-.8.8-.8h9.58c2.7,0,5.17.61,7.42,1.84,2.25,1.22,4.03,2.91,5.34,5.05,1.31,2.14,1.96,4.52,1.96,7.12s-.65,4.98-1.95,7.12-3.08,3.83-5.32,5.06c-2.24,1.23-4.71,1.85-7.39,1.85h-9.64c-.53,0-.8-.27-.8-.8ZM250.55,117.4c1.2-.66,2.14-1.59,2.82-2.77.68-1.18,1.03-2.53,1.03-4.05s-.34-2.83-1.03-4.02c-.68-1.19-1.63-2.12-2.83-2.78-1.2-.66-2.56-1-4.06-1h-4.15v15.62h4.19c1.49,0,2.83-.33,4.03-1Z"/>
    <path class="cls-1" d="M270.4,123.69c-1.8-1-3.17-2.39-4.11-4.17-.94-1.78-1.42-3.8-1.42-6.08v-16.08c0-.53.27-.8.8-.8h4.87c.53,0,.8.27.8.8v15.22c0,1.32.22,2.47.66,3.46s1.07,1.75,1.9,2.29c.82.54,1.8.81,2.93.81s2.11-.27,2.94-.81c.83-.54,1.47-1.3,1.91-2.28s.67-2.14.67-3.47v-15.22c0-.53.27-.8.8-.8h4.87c.53,0,.8.27.8.8v16.08c0,2.27-.47,4.3-1.42,6.08-.94,1.78-2.32,3.16-4.13,4.17s-3.96,1.51-6.44,1.51-4.63-.5-6.42-1.51Z"/>
    <path class="cls-1" d="M299.92,123.15c-2.22-1.3-3.97-3.06-5.26-5.29s-1.93-4.67-1.93-7.33.64-5.1,1.92-7.31c1.28-2.21,3.03-3.96,5.25-5.25,2.22-1.28,4.68-1.92,7.38-1.92,1.66,0,3.25.25,4.76.76,1.51.51,2.87,1.22,4.08,2.15.23.17.34.37.34.6,0,.17-.07.35-.2.52l-2.81,3.67c-.19.23-.39.34-.6.34-.16,0-.33-.06-.52-.18-.74-.5-1.55-.91-2.41-1.21s-1.74-.45-2.63-.45c-1.42,0-2.75.37-3.97,1.1s-2.2,1.73-2.92,3c-.73,1.27-1.09,2.67-1.09,4.2s.37,2.95,1.1,4.22c.73,1.27,1.71,2.27,2.93,3.01s2.54,1.11,3.95,1.11c.98,0,1.87-.13,2.64-.4.78-.27,1.59-.7,2.44-1.32.19-.12.36-.18.52-.18.24,0,.45.11.62.34l2.75,3.69c.15.21.22.4.22.56,0,.19-.1.36-.3.52-1.24.96-2.61,1.7-4.13,2.21-1.52.52-3.11.78-4.77.78-2.69,0-5.14-.65-7.36-1.94Z"/>
    <path class="cls-1" d="M345.05,124.02c0,.19-.06.33-.18.43-.12.1-.29.15-.5.15h-5.01c-.45,0-.75-.22-.9-.66l-1.48-4.11h-10.71l-1.46,4.11c-.13.44-.43.66-.9.66h-5.01c-.21,0-.38-.05-.51-.15-.13-.1-.19-.24-.19-.43,0-.11.02-.22.06-.34l10.29-26.51c.16-.43.47-.64.92-.64h4.33c.46,0,.78.21.94.64l10.23,26.51c.04.12.06.23.06.34ZM335.13,114.38l-3.19-9-.32-1.14-.28,1.14-3.19,9h6.98Z"/>
    <path class="cls-1" d="M356.6,124.6h-4.87c-.53,0-.8-.27-.8-.8v-21.21h-7c-.53,0-.8-.27-.8-.8v-4.43c0-.53.27-.8.8-.8h20.49c.53,0,.8.27.8.8v4.43c0,.53-.27.8-.8.8h-7.02v21.21c0,.53-.27.8-.8.8Z"/>
    <path class="cls-1" d="M374.65,124.6h-4.87c-.53,0-.8-.27-.8-.8v-26.43c0-.53.27-.8.8-.8h4.87c.53,0,.8.27.8.8v26.43c0,.53-.27.8-.8.8Z"/>
    <path class="cls-1" d="M387.16,123.15c-2.22-1.3-3.97-3.06-5.26-5.29s-1.93-4.67-1.93-7.33.64-5.1,1.92-7.31c1.28-2.21,3.03-3.96,5.25-5.25,2.22-1.28,4.68-1.92,7.38-1.92s5.14.64,7.36,1.92c2.22,1.28,3.97,3.03,5.26,5.25,1.28,2.21,1.93,4.65,1.93,7.31s-.64,5.1-1.93,7.33-3.04,3.99-5.26,5.29c-2.22,1.3-4.68,1.94-7.36,1.94s-5.14-.65-7.36-1.94ZM398.49,117.79c1.22-.73,2.2-1.74,2.92-3.01s1.09-2.69,1.09-4.23-.37-2.93-1.1-4.2c-.73-1.27-1.71-2.27-2.93-3-1.22-.73-2.54-1.1-3.95-1.1s-2.75.37-3.97,1.1c-1.22.73-2.2,1.73-2.92,3-.72,1.27-1.09,2.67-1.09,4.2s.37,2.95,1.1,4.22c.73,1.27,1.71,2.27,2.93,3.01,1.22.74,2.54,1.11,3.95,1.11s2.75-.37,3.97-1.1Z"/>
    <path class="cls-1" d="M419.08,124.6h-4.71c-.53,0-.8-.27-.8-.8v-26.43c0-.53.27-.8.8-.8h5.31c.42,0,.74.17.96.52l10.91,16.56v-16.28c0-.53.27-.8.8-.8h4.71c.53,0,.8.27.8.8v26.43c0,.53-.27.8-.8.8h-4.73c-.41,0-.73-.17-.96-.52l-11.49-17.32v17.04c0,.53-.27.8-.8.8Z"/>
    <path class="cls-1" d="M468.22,124.02c0,.19-.06.33-.18.43-.12.1-.29.15-.5.15h-5.01c-.45,0-.75-.22-.9-.66l-1.48-4.11h-10.71l-1.46,4.11c-.13.44-.43.66-.9.66h-5.01c-.21,0-.38-.05-.51-.15-.13-.1-.19-.24-.19-.43,0-.11.02-.22.06-.34l10.29-26.51c.16-.43.47-.64.92-.64h4.33c.47,0,.78.21.94.64l10.23,26.51c.04.12.06.23.06.34ZM458.3,114.38l-3.19-9-.32-1.14-.28,1.14-3.19,9h6.98Z"/>
    <path class="cls-1" d="M489.58,124.6h-17.02c-.53,0-.8-.27-.8-.8v-26.43c0-.53.27-.8.8-.8h4.87c.53,0,.8.27.8.8v21.05h11.35c.53,0,.8.27.8.8v4.59c0,.53-.27.8-.8.8Z"/>
    <path class="cls-1" d="M514.46,124.6h-4.87c-.53,0-.8-.27-.8-.8v-21.21h-7c-.53,0-.8-.27-.8-.8v-4.43c0-.53.27-.8.8-.8h20.49c.53,0,.8.27.8.8v4.43c0,.53-.27.8-.8.8h-7.02v21.21c0,.53-.27.8-.8.8Z"/>
    <path class="cls-1" d="M526.85,123.8v-26.43c0-.53.27-.8.8-.8h11.09c1.91,0,3.61.4,5.09,1.2,1.48.8,2.63,1.91,3.45,3.33.82,1.42,1.24,3.06,1.24,4.91s-.38,3.36-1.15,4.65c-.77,1.29-1.83,2.33-3.2,3.11l4.91,9.89c.08.16.12.3.12.42,0,.16-.06.29-.19.38s-.3.14-.51.14h-5.59c-.44,0-.75-.2-.94-.6l-3.99-8.56c-.24.01-.59.02-1.06.02h-3.61v8.34c0,.53-.27.8-.8.8h-4.87c-.53,0-.8-.27-.8-.8ZM540.1,109.38c.58-.35,1.03-.81,1.36-1.41.33-.59.49-1.24.49-1.95,0-.78-.17-1.46-.5-2.02-.33-.57-.78-.99-1.35-1.28-.57-.29-1.2-.43-1.91-.43h-4.89v7.6h4.83c.73,0,1.39-.17,1.96-.52Z"/>
    <path class="cls-1" d="M558.33,123.69c-1.79-1-3.16-2.39-4.11-4.17-.95-1.78-1.42-3.8-1.42-6.08v-16.08c0-.53.27-.8.8-.8h4.87c.53,0,.8.27.8.8v15.22c0,1.32.22,2.47.66,3.46s1.07,1.75,1.9,2.29c.82.54,1.8.81,2.93.81s2.11-.27,2.94-.81c.83-.54,1.47-1.3,1.92-2.28.44-.98.67-2.14.67-3.47v-15.22c0-.53.27-.8.8-.8h4.87c.53,0,.8.27.8.8v16.08c0,2.27-.47,4.3-1.42,6.08-.95,1.78-2.32,3.16-4.13,4.17-1.81,1-3.96,1.51-6.44,1.51s-4.63-.5-6.42-1.51Z"/>
    <path class="cls-1" d="M585.35,123.84c-1.88-.81-3.51-1.99-4.9-3.53-.16-.19-.24-.37-.24-.54,0-.2.1-.4.3-.6l3.07-2.95c.17-.17.35-.26.54-.26.21,0,.41.1.58.3.89.92,1.9,1.61,3.03,2.09,1.13.47,2.29.71,3.49.71,1.28,0,2.26-.24,2.94-.71.68-.47,1.03-1.12,1.03-1.95,0-.56-.16-1.03-.47-1.43-.31-.39-.85-.76-1.62-1.11-.77-.35-1.86-.72-3.28-1.14-2.31-.66-4.32-1.68-6.02-3.03s-2.55-3.24-2.55-5.67c0-1.45.37-2.78,1.12-3.99.74-1.21,1.86-2.18,3.35-2.9,1.49-.72,3.3-1.09,5.45-1.09,1.81,0,3.54.32,5.2.97s3.14,1.52,4.44,2.62c.2.16.3.35.3.56,0,.19-.08.37-.24.56l-2.81,3.19c-.17.21-.37.32-.58.32-.17,0-.35-.07-.54-.22-.77-.6-1.65-1.1-2.64-1.51-.99-.41-1.96-.61-2.92-.61-1.09,0-1.94.18-2.56.55s-.93.9-.93,1.61c0,.56.18,1.02.54,1.39.36.37.83.68,1.43.94.59.26,1.48.58,2.66.97.05.01.22.07.5.16,1.92.64,3.5,1.32,4.75,2.05,1.25.73,2.23,1.64,2.93,2.71.7,1.08,1.06,2.39,1.06,3.95,0,1.77-.43,3.32-1.3,4.65s-2.08,2.35-3.65,3.07c-1.57.72-3.38,1.08-5.43,1.08s-4.13-.41-6.02-1.22Z"/>
    <path class="cls-1" d="M616.64,124.6h-4.87c-.53,0-.8-.27-.8-.8v-21.21h-7c-.53,0-.8-.27-.8-.8v-4.43c0-.53.27-.8.8-.8h20.49c.53,0,.8.27.8.8v4.43c0,.53-.27.8-.8.8h-7.02v21.21c0,.53-.27.8-.8.8Z"/>
  </g>
  <g>
    <path class="cls-2" d="M83.63,66.9s-13.11-16.75-38.66-28.71c1.04-1.66,2.18-3.25,3.39-4.75l-10.54-10.55,12.12,8.68c2.42-2.72,5.13-5.15,8.06-7.23l-7.06-13.21,9.05,11.87c3.02-1.92,6.26-3.48,9.67-4.63l-1.3-15.03,3.56,14.33c3.38-.94,6.9-1.48,10.53-1.58l1.17-16.09,1.17,16.09c3.63.1,7.15.64,10.53,1.58l3.56-14.33-1.3,15.03c3.41,1.15,6.65,2.71,9.67,4.63l9.05-11.87-7.06,13.21c2.93,2.08,5.64,4.51,8.06,7.23l13.17-9.17-11.58,11.05c1.21,1.51,2.35,3.1,3.39,4.75-25.56,11.95-38.66,28.71-38.66,28.71h0Z"/>
    <path class="cls-1" d="M83.63,72.72S55.01,38.85,0,38.85l19.27,47.06c36.33-9.27,64.36,33.32,64.36,33.32,0,0,28.04-42.59,64.36-33.32l19.27-47.06c-55.01,0-83.63,33.87-83.63,33.87ZM20.42,69.03c21.1-.79,39.84,10.8,50.9,21.49-17.05-12.65-33.82-19.08-50.9-21.49ZM20.42,56.35c21.1-.79,39.84,10.8,50.9,21.49-17.05-12.65-33.82-19.08-50.9-21.49ZM95.93,90.53c11.07-10.69,29.81-22.28,50.9-21.49-17.08,2.41-33.85,8.84-50.9,21.49ZM95.93,77.84c11.07-10.69,29.81-22.28,50.9-21.49-17.08,2.41-33.85,8.84-50.9,21.49Z"/>
    <path class="cls-3" d="M83.63,130.19c-15.68-27.15-39.87-47.38-74.52-34.85,5.52,30.92,35.24,51.31,66,45.37-1.67-3.79-4.43-9.48-8.89-14.94-1,1.95-2.6,4.32-5.06,6.34-.31.27-.63.53-.98.76.34-.25.67-.5.98-.76,2.62-2.32,3.54-6,3.84-7.78-1.71-1.94-3.64-3.81-5.82-5.54-.94,2.1-2.64,5-5.57,7.41-.31.27-.63.53-.98.76.34-.25.67-.5.98-.76,3.19-2.83,3.85-7.65,3.96-8.63-2.14-1.53-4.49-2.92-7.1-4.08-.91,2.11-2.63,5.13-5.67,7.64-.31.27-.63.53-.98.76.34-.25.67-.5.98-.76,2.96-2.62,3.74-6.96,3.92-8.36-2.16-.84-4.47-1.53-6.96-2.02-.82,2.1-2.57,5.53-5.95,8.31-.31.27-.63.53-.98.76.34-.25.67-.5.98-.76,3.22-2.86,3.87-7.75,3.96-8.66-2.27-.34-4.67-.53-7.21-.53,2.44-.65,4.99-.99,7.58-1.05-.23-1.6-1.08-5.65-3.89-8.14-.31-.26-.64-.52-.98-.76.35.23.68.49.98.76,3.3,2.72,5.04,6.05,5.89,8.16.08,0,.15,0,.23.01h.03s0,0,0,0c2.32.1,4.67.43,7.01.95-.32-1.82-1.25-5.4-3.82-7.68-.31-.26-.64-.52-.98-.76.35.23.68.49.98.76,3.32,2.74,5.07,6.1,5.91,8.2,2.32.64,4.63,1.48,6.88,2.5-.21-1.52-1.03-5.69-3.91-8.25-.31-.26-.64-.52-.98-.76.35.23.68.49.98.76,4.09,3.37,5.8,7.7,6.35,9.44.99.51,1.97,1.05,2.93,1.64,1.16.71,2.3,1.47,3.41,2.27-.32-1.83-1.26-5.38-3.81-7.64-.31-.26-.64-.52-.98-.76.35.23.68.49.98.76,4.28,3.53,5.95,8.11,6.42,9.67,6.09,5.03,11.07,11.52,13.88,18.97,2.6-6.88,7.05-12.94,12.52-17.8.55-1.73,2.25-6.07,6.36-9.46.31-.27.63-.53.98-.76-.34.25-.67.5-.98.76-2.4,2.13-3.37,5.38-3.75,7.29,1.94-1.5,3.98-2.87,6.09-4.06.24-.91,1.77-6.14,6.54-10.07.31-.27.63-.53.98-.76-.34.25-.67.5-.98.76-3.28,2.91-3.89,7.92-3.96,8.71,2.24-1.11,4.53-2.04,6.86-2.77.81-2.09,2.56-5.58,5.98-8.4.31-.27.63-.53.98-.76-.34.25-.67.5-.98.76-2.62,2.33-3.54,6-3.84,7.79,2.44-.64,4.9-1.06,7.34-1.23.87-2.11,2.61-5.35,5.82-7.99.31-.27.63-.53.98-.76-.34.25-.67.5-.98.76-2.68,2.38-3.58,6.17-3.86,7.9,3.07-.06,6.09.27,8.97,1.05-3.08,0-5.95.28-8.63.78.1.93.75,5.8,3.96,8.65.31.26.64.52.98.76-.35-.23-.68-.49-.98-.76-3.34-2.75-5.09-6.14-5.92-8.24-2.48.58-4.8,1.34-6.94,2.27.25,1.66,1.12,5.59,3.88,8.04.31.26.64.51.98.76-.35-.23-.68-.49-.98-.76-2.87-2.37-4.57-5.2-5.51-7.29-2.64,1.29-5.01,2.81-7.15,4.47.28,1.74,1.18,5.51,3.85,7.88.31.26.64.52.98.76-.35-.23-.68-.49-.98-.76-2.63-2.17-4.27-4.72-5.26-6.74-2.24,1.9-4.2,3.95-5.9,6.04.46,1.94,1.47,4.72,3.6,6.62.31.26.64.52.98.76-.35-.23-.68-.49-.98-.76-2.08-1.71-3.54-3.68-4.55-5.42-3.92,5.1-6.42,10.26-7.97,13.78,30.76,5.94,60.48-14.45,66-45.37-34.65-12.53-58.84,7.69-74.52,34.85Z"/>
  </g>
</svg>